<svg width="541" height="595" viewBox="0 0 141 95" fill="none" xmlns="http://www.w3.org/2000/svg">
<g clip-path="url(#clip0_202_8)">
<path d="M30.0523 43.173H11.6576V48.7538L24.5923 53.6094H11.6576V57.2762H30.0523V51.7155L17.0974 46.86H30.0523V43.173Z" fill="white"/>
<path d="M47.9963 43.173L42.2945 52.8639L36.6129 43.173H31.2739V57.2762H34.9407V47.6054L40.6424 57.2762H43.9668L49.6685 47.6054V57.2762H53.3354V43.173H47.9963Z" fill="white"/>
<path d="M84.9787 57.2762H88.9679L70.9959 27.6306L53.3605 57.2762H57.3296L59.4831 53.6094H82.6047L84.9787 57.2762ZM59.4831 53.6094L70.9959 34.0586L82.6047 53.6094H59.4831Z" fill="white"/>
<path d="M109.726 47.4845C109.726 45.1071 107.812 43.173 105.435 43.173H90.1226V57.2762H93.7895V51.7759H103.843L105.757 57.2762H109.726L107.611 51.1715C108.88 50.4261 109.726 49.056 109.726 47.4845ZM93.7895 46.86H105.435C105.777 46.86 106.059 47.142 106.059 47.4845C106.059 47.8069 105.777 48.0889 105.435 48.0889H93.7895V46.86Z" fill="white"/>
<path d="M109.739 43.173V46.86H117.093V57.2762H120.76V46.86H128.134V43.173H109.739Z" fill="white"/>
<path d="M14.7077 63.992V68.908H3.66684V63.992H0V78.0953H3.66684V72.595H14.7077V78.0953H18.3947V63.992H14.7077Z" fill="white"/>
<path d="M35.2507 78.0953H39.2399L34.3441 63.992H23.3032L18.4074 78.0953H22.3765L23.6659 74.4284H33.9814L35.2507 78.0953ZM24.9352 70.7414L26.003 67.679H31.6242L32.692 70.7414H24.9352Z" fill="white"/>
<path d="M55.9746 63.992L50.2729 73.683L44.5913 63.992H39.2522V78.0953H42.919V68.4245L48.6208 78.0953H51.9451L57.6468 68.4245V78.0953H61.3137V63.992H55.9746Z" fill="white"/>
<path d="M80.9424 63.992H62.5477V69.5729L75.4824 74.4284H62.5477V78.0953H80.9424V72.5346L67.9875 67.679H80.9424V63.992Z" fill="white"/>
<path d="M82.164 63.992V67.679H89.5178V78.0953H93.1846V67.679H100.559V63.992H82.164Z" fill="white"/>
<path d="M120.175 67.679V63.992H101.78V78.0953H120.175V74.4284H105.447V72.595H120.175V68.908H105.447V67.679H120.175Z" fill="white"/>
<path d="M141 68.3036C141 65.9262 139.086 63.992 136.709 63.992H121.396V78.0953H125.063V72.595H135.117L137.031 78.0953H141L138.885 71.9906C140.154 71.2451 141 69.8751 141 68.3036ZM125.063 67.679H136.709C137.051 67.679 137.333 67.9611 137.333 68.3036C137.333 68.626 137.051 68.908 136.709 68.908H125.063V67.679Z" fill="white"/>
<circle cx="70.5164" cy="23.3135" r="21.8135" stroke="white" stroke-width="3"/>
<path d="M84.4279 23.6975C84.1976 23.851 83.6924 24.7848 83.4685 25.2325C82.7969 25.6163 82.3172 26.5756 82.5091 26.6716C82.6626 26.7483 83.0847 26.5117 83.2766 26.3838C83.2766 26.4477 83.2382 26.6908 83.0847 27.1513C82.8928 27.7269 80.8779 31.2767 79.6307 32.7158C78.3835 34.1549 79.1512 36.5534 79.2471 36.6494C79.3239 36.7261 79.9187 36.3616 80.2065 36.1697C80.2065 36.2656 80.2449 36.6302 80.3984 37.321C80.5519 38.0117 81.038 39.2718 81.2619 39.8154L81.8375 39.6235C81.7416 39.2078 81.5689 38.3187 81.6456 38.0885C81.9526 37.7047 82.2213 36.7133 82.3172 36.2656L82.701 36.5534C83.2127 36.7773 84.2936 37.2058 84.5238 37.1291C84.7541 37.0523 84.8756 36.9052 84.9076 36.8413C84.3639 36.6814 83.315 36.2848 83.4685 35.9778C83.622 35.6708 83.6604 35.1463 83.6604 34.9225L86.4426 32.0442C86.6985 32.428 87.2869 33.1955 87.5939 33.1955C87.9777 33.1955 88.1696 32.8118 87.8818 32.7158C87.6515 32.6391 87.1462 31.6605 86.9224 31.1808C87.3061 31.0848 89.8965 28.7823 89.9924 28.3985C90.0884 28.0147 89.6087 28.3026 89.3209 28.5904C89.033 28.8782 87.3061 29.5498 87.4021 29.262C87.498 28.9742 86.9224 28.3026 87.0183 28.0147C87.1142 27.7269 87.0183 26.6716 87.0183 26C87.6899 24.7528 86.9224 22.834 86.4426 22.6421C85.9629 22.4502 84.7157 23.5056 84.4279 23.6975Z" fill="white"/>
<path d="M9.3418 95.0195V90.2588C9.3418 90.1022 9.31217 89.9562 9.25293 89.8208C9.19368 89.6812 9.11328 89.5605 9.01172 89.459C8.91016 89.3574 8.78955 89.277 8.6499 89.2178C8.51449 89.1585 8.36849 89.1289 8.21191 89.1289H7.69141C7.53483 89.1289 7.38672 89.1585 7.24707 89.2178C7.11165 89.277 6.99316 89.3574 6.8916 89.459C6.79004 89.5605 6.70964 89.6812 6.65039 89.8208C6.59115 89.9562 6.56152 90.1022 6.56152 90.2588V95.0195H5.78076V88.5195H6.04102L6.46631 89.1797C6.64404 88.9385 6.86621 88.748 7.13281 88.6084C7.40365 88.4645 7.69775 88.3926 8.01514 88.3926H8.21191C8.47428 88.3926 8.72184 88.4434 8.95459 88.5449C9.18734 88.6423 9.39046 88.7777 9.56396 88.9512C9.73747 89.1247 9.87288 89.3278 9.97021 89.5605C10.0718 89.7933 10.1226 90.0409 10.1226 90.3032V95.0195H9.3418ZM21.7459 93.2358C21.7459 93.4982 21.6951 93.7458 21.5935 93.9785C21.4962 94.2113 21.3608 94.4144 21.1873 94.5879C21.0138 94.7614 20.8107 94.8989 20.5779 95.0005C20.3452 95.0978 20.0976 95.1465 19.8352 95.1465H19.3147C19.0524 95.1465 18.8048 95.0978 18.5721 95.0005C18.3393 94.8989 18.1362 94.7614 17.9627 94.5879C17.7892 94.4144 17.6516 94.2113 17.5501 93.9785C17.4527 93.7458 17.4041 93.4982 17.4041 93.2358V90.3032C17.4041 90.0409 17.4527 89.7933 17.5501 89.5605C17.6516 89.3278 17.7892 89.1247 17.9627 88.9512C18.1362 88.7777 18.3393 88.6423 18.5721 88.5449C18.8048 88.4434 19.0524 88.3926 19.3147 88.3926H19.8352C20.0976 88.3926 20.3452 88.4434 20.5779 88.5449C20.8107 88.6423 21.0138 88.7777 21.1873 88.9512C21.3608 89.1247 21.4962 89.3278 21.5935 89.5605C21.6951 89.7933 21.7459 90.0409 21.7459 90.3032V93.2358ZM20.9651 90.2588C20.9651 90.1022 20.9355 89.9562 20.8762 89.8208C20.817 89.6812 20.7366 89.5605 20.635 89.459C20.5335 89.3574 20.4129 89.277 20.2732 89.2178C20.1378 89.1585 19.9918 89.1289 19.8352 89.1289H19.3147C19.1582 89.1289 19.01 89.1585 18.8704 89.2178C18.735 89.277 18.6165 89.3574 18.5149 89.459C18.4134 89.5605 18.333 89.6812 18.2737 89.8208C18.2145 89.9562 18.1848 90.1022 18.1848 90.2588V93.2803C18.1848 93.4368 18.2145 93.585 18.2737 93.7246C18.333 93.86 18.4134 93.9785 18.5149 94.0801C18.6165 94.1816 18.735 94.262 18.8704 94.3213C19.01 94.3805 19.1582 94.4102 19.3147 94.4102H19.8352C19.9918 94.4102 20.1378 94.3805 20.2732 94.3213C20.4129 94.262 20.5335 94.1816 20.635 94.0801C20.7366 93.9785 20.817 93.86 20.8762 93.7246C20.9355 93.585 20.9651 93.4368 20.9651 93.2803V90.2588ZM33.1089 95.0195L32.6773 94.3594C32.4996 94.6006 32.2774 94.7931 32.0108 94.937C31.7442 95.0767 31.4522 95.1465 31.1348 95.1465H30.938C30.6757 95.1465 30.4281 95.0978 30.1954 95.0005C29.9626 94.8989 29.7595 94.7614 29.586 94.5879C29.4125 94.4144 29.275 94.2113 29.1734 93.9785C29.0761 93.7458 29.0274 93.4982 29.0274 93.2358V90.3032C29.0274 90.0409 29.0761 89.7933 29.1734 89.5605C29.275 89.3278 29.4125 89.1247 29.586 88.9512C29.7595 88.7777 29.9626 88.6423 30.1954 88.5449C30.4281 88.4434 30.6757 88.3926 30.938 88.3926H31.1348C31.4268 88.3926 31.6976 88.4518 31.9473 88.5703C32.197 88.6888 32.4107 88.8538 32.5884 89.0654V85.917H33.3692V95.0195H33.1089ZM32.5884 90.2588C32.5884 90.1022 32.5588 89.9562 32.4996 89.8208C32.4403 89.6812 32.3599 89.5605 32.2584 89.459C32.1568 89.3574 32.0362 89.277 31.8965 89.2178C31.7611 89.1585 31.6151 89.1289 31.4586 89.1289H30.938C30.7815 89.1289 30.6334 89.1585 30.4937 89.2178C30.3583 89.277 30.2398 89.3574 30.1382 89.459C30.0367 89.5605 29.9563 89.6812 29.897 89.8208C29.8378 89.9562 29.8082 90.1022 29.8082 90.2588V93.2803C29.8082 93.4368 29.8378 93.585 29.897 93.7246C29.9563 93.86 30.0367 93.9785 30.1382 94.0801C30.2398 94.1816 30.3583 94.262 30.4937 94.3213C30.6334 94.3805 30.7815 94.4102 30.938 94.4102H31.4586C31.6151 94.4102 31.7611 94.3805 31.8965 94.3213C32.0362 94.262 32.1568 94.1816 32.2584 94.0801C32.3599 93.9785 32.4403 93.86 32.4996 93.7246C32.5588 93.585 32.5884 93.4368 32.5884 93.2803V90.2588ZM44.9925 93.2358C44.9925 93.4982 44.9417 93.7458 44.8402 93.9785C44.7428 94.2113 44.6074 94.4144 44.4339 94.5879C44.2604 94.7614 44.0573 94.8989 43.8246 95.0005C43.5918 95.0978 43.3442 95.1465 43.0819 95.1465H42.5614C42.299 95.1465 42.0514 95.0978 41.8187 95.0005C41.5859 94.8989 41.3828 94.7614 41.2093 94.5879C41.0358 94.4144 40.8983 94.2113 40.7967 93.9785C40.6994 93.7458 40.6507 93.4982 40.6507 93.2358V90.3032C40.6507 90.0409 40.6994 89.7933 40.7967 89.5605C40.8983 89.3278 41.0358 89.1247 41.2093 88.9512C41.3828 88.7777 41.5859 88.6423 41.8187 88.5449C42.0514 88.4434 42.299 88.3926 42.5614 88.3926H43.0819C43.3442 88.3926 43.5918 88.4434 43.8246 88.5449C44.0573 88.6423 44.2604 88.7777 44.4339 88.9512C44.6074 89.1247 44.7428 89.3278 44.8402 89.5605C44.9417 89.7933 44.9925 90.0409 44.9925 90.3032V91.833H41.4315V93.2803C41.4315 93.4368 41.4611 93.585 41.5204 93.7246C41.5796 93.86 41.66 93.9785 41.7616 94.0801C41.8631 94.1816 41.9816 94.262 42.117 94.3213C42.2567 94.3805 42.4048 94.4102 42.5614 94.4102H43.0819C43.2385 94.4102 43.3844 94.3805 43.5199 94.3213C43.6595 94.262 43.7801 94.1816 43.8817 94.0801C43.9832 93.9785 44.0636 93.86 44.1229 93.7246C44.1821 93.585 44.2118 93.4368 44.2118 93.2803V92.8486L44.9925 92.9756V93.2358ZM44.2118 90.2588C44.2118 90.1022 44.1821 89.9562 44.1229 89.8208C44.0636 89.6812 43.9832 89.5605 43.8817 89.459C43.7801 89.3574 43.6595 89.277 43.5199 89.2178C43.3844 89.1585 43.2385 89.1289 43.0819 89.1289H42.5614C42.4048 89.1289 42.2567 89.1585 42.117 89.2178C41.9816 89.277 41.8631 89.3574 41.7616 89.459C41.66 89.5605 41.5796 89.6812 41.5204 89.8208C41.4611 89.9562 41.4315 90.1022 41.4315 90.2588V91.2236H44.2118V90.2588ZM56.7428 93.3691C56.7428 93.6315 56.6899 93.8727 56.5841 94.0928C56.4783 94.3086 56.3344 94.4948 56.1525 94.6514C55.9705 94.8079 55.7589 94.9307 55.5177 95.0195C55.2807 95.1042 55.031 95.1465 54.7687 95.1465H54.2482C53.9858 95.1465 53.734 95.0978 53.4928 95.0005C53.2558 94.8989 53.0463 94.7614 52.8644 94.5879C52.6866 94.4144 52.5428 94.2113 52.4327 93.9785C52.3269 93.7458 52.274 93.4982 52.274 93.2358V92.9756L53.0548 92.8486V93.2803C53.0548 93.4368 53.0865 93.585 53.15 93.7246C53.2177 93.86 53.3066 93.9785 53.4166 94.0801C53.5266 94.1816 53.6536 94.262 53.7975 94.3213C53.9414 94.3805 54.0916 94.4102 54.2482 94.4102H54.7687C54.9252 94.4102 55.0755 94.3869 55.2194 94.3403C55.3632 94.2938 55.4902 94.2282 55.6002 94.1436C55.7145 94.0547 55.8033 93.9489 55.8668 93.8262C55.9345 93.7035 55.9684 93.5638 55.9684 93.4072C55.9684 93.1745 55.9176 92.984 55.816 92.8359C55.7145 92.6878 55.5791 92.5651 55.4098 92.4678C55.2447 92.3662 55.0543 92.2837 54.8385 92.2202C54.6269 92.1525 54.409 92.0869 54.1847 92.0234C53.9604 91.9557 53.7403 91.8796 53.5245 91.7949C53.3129 91.7103 53.1225 91.6003 52.9532 91.4648C52.7882 91.3252 52.6549 91.1517 52.5533 90.9443C52.4518 90.737 52.401 90.4788 52.401 90.1699C52.401 89.9076 52.4518 89.6685 52.5533 89.4526C52.6549 89.2326 52.7924 89.0443 52.9659 88.8877C53.1394 88.7311 53.3404 88.6105 53.569 88.5259C53.8017 88.437 54.0493 88.3926 54.3116 88.3926H54.7687C55.031 88.3926 55.2786 88.4434 55.5113 88.5449C55.7441 88.6423 55.9472 88.7777 56.1207 88.9512C56.2942 89.1247 56.4296 89.3278 56.527 89.5605C56.6285 89.7933 56.6793 90.0409 56.6793 90.3032V90.3286L55.8986 90.4556V90.2588C55.8986 90.1022 55.8689 89.9562 55.8097 89.8208C55.7504 89.6812 55.67 89.5605 55.5685 89.459C55.4669 89.3574 55.3463 89.277 55.2067 89.2178C55.0712 89.1585 54.9252 89.1289 54.7687 89.1289H54.3116C54.1551 89.1289 54.007 89.1522 53.8673 89.1987C53.7319 89.2453 53.6134 89.313 53.5118 89.4019C53.4103 89.4865 53.3299 89.5902 53.2706 89.7129C53.2114 89.8356 53.1818 89.9753 53.1818 90.1318C53.1818 90.3561 53.2325 90.5402 53.3341 90.6841C53.4357 90.8237 53.569 90.9422 53.734 91.0396C53.9033 91.1369 54.0937 91.2194 54.3053 91.2871C54.5211 91.3506 54.739 91.4183 54.9591 91.4902C55.1834 91.5579 55.4013 91.6362 55.6129 91.7251C55.8287 91.814 56.0192 91.9282 56.1842 92.0679C56.3535 92.2075 56.4889 92.3831 56.5904 92.5947C56.692 92.8021 56.7428 93.0602 56.7428 93.3691ZM77.1457 93.3691C77.1457 93.6315 77.0928 93.8727 76.987 94.0928C76.8812 94.3086 76.7373 94.4948 76.5554 94.6514C76.3734 94.8079 76.1618 94.9307 75.9206 95.0195C75.6836 95.1042 75.4339 95.1465 75.1716 95.1465H74.6511C74.3887 95.1465 74.1369 95.0978 73.8957 95.0005C73.6587 94.8989 73.4492 94.7614 73.2673 94.5879C73.0895 94.4144 72.9457 94.2113 72.8356 93.9785C72.7298 93.7458 72.6769 93.4982 72.6769 93.2358V92.9756L73.4577 92.8486V93.2803C73.4577 93.4368 73.4894 93.585 73.5529 93.7246C73.6206 93.86 73.7095 93.9785 73.8195 94.0801C73.9295 94.1816 74.0565 94.262 74.2004 94.3213C74.3443 94.3805 74.4945 94.4102 74.6511 94.4102H75.1716C75.3281 94.4102 75.4784 94.3869 75.6222 94.3403C75.7661 94.2938 75.8931 94.2282 76.0031 94.1436C76.1174 94.0547 76.2062 93.9489 76.2697 93.8262C76.3374 93.7035 76.3713 93.5638 76.3713 93.4072C76.3713 93.1745 76.3205 92.984 76.2189 92.8359C76.1174 92.6878 75.9819 92.5651 75.8127 92.4678C75.6476 92.3662 75.4572 92.2837 75.2414 92.2202C75.0298 92.1525 74.8119 92.0869 74.5876 92.0234C74.3633 91.9557 74.1432 91.8796 73.9274 91.7949C73.7158 91.7103 73.5254 91.6003 73.3561 91.4648C73.1911 91.3252 73.0578 91.1517 72.9562 90.9443C72.8547 90.737 72.8039 90.4788 72.8039 90.1699C72.8039 89.9076 72.8547 89.6685 72.9562 89.4526C73.0578 89.2326 73.1953 89.0443 73.3688 88.8877C73.5423 88.7311 73.7433 88.6105 73.9719 88.5259C74.2046 88.437 74.4522 88.3926 74.7145 88.3926H75.1716C75.4339 88.3926 75.6815 88.4434 75.9142 88.5449C76.147 88.6423 76.3501 88.7777 76.5236 88.9512C76.6971 89.1247 76.8325 89.3278 76.9299 89.5605C77.0314 89.7933 77.0822 90.0409 77.0822 90.3032V90.3286L76.3014 90.4556V90.2588C76.3014 90.1022 76.2718 89.9562 76.2126 89.8208C76.1533 89.6812 76.0729 89.5605 75.9714 89.459C75.8698 89.3574 75.7492 89.277 75.6096 89.2178C75.4741 89.1585 75.3281 89.1289 75.1716 89.1289H74.7145C74.558 89.1289 74.4098 89.1522 74.2702 89.1987C74.1348 89.2453 74.0163 89.313 73.9147 89.4019C73.8132 89.4865 73.7328 89.5902 73.6735 89.7129C73.6143 89.8356 73.5846 89.9753 73.5846 90.1318C73.5846 90.3561 73.6354 90.5402 73.737 90.6841C73.8386 90.8237 73.9719 90.9422 74.1369 91.0396C74.3062 91.1369 74.4966 91.2194 74.7082 91.2871C74.924 91.3506 75.1419 91.4183 75.362 91.4902C75.5863 91.5579 75.8042 91.6362 76.0158 91.7251C76.2316 91.814 76.4221 91.9282 76.5871 92.0679C76.7564 92.2075 76.8918 92.3831 76.9933 92.5947C77.0949 92.8021 77.1457 93.0602 77.1457 93.3691ZM86.7314 95.0195C86.4944 95.0195 86.2701 94.9751 86.0586 94.8862C85.8512 94.7974 85.6692 94.6746 85.5127 94.5181C85.3603 94.3615 85.2376 94.1795 85.1445 93.9722C85.0556 93.7648 85.0112 93.5426 85.0112 93.3057V89.2622H83.8432V88.5195H85.0112V86.958L85.792 86.8311V88.5195H87.4423V89.2622H85.792V93.3438C85.792 93.4749 85.8152 93.5977 85.8618 93.7119C85.9126 93.8219 85.9803 93.9193 86.0649 94.0039C86.1495 94.0885 86.249 94.1562 86.3632 94.207C86.4775 94.2536 86.6002 94.2769 86.7314 94.2769H87.4423V95.0195H86.7314ZM98.6848 95.0195L98.2532 94.3594C98.0754 94.6006 97.8533 94.7931 97.5867 94.937C97.3201 95.0767 97.0281 95.1465 96.7107 95.1465H96.5139C96.2515 95.1465 96.004 95.0978 95.7712 95.0005C95.5385 94.8989 95.3354 94.7614 95.1618 94.5879C94.9883 94.4144 94.8508 94.2113 94.7493 93.9785C94.6519 93.7458 94.6033 93.4982 94.6033 93.2358V88.5195H95.384V93.2803C95.384 93.4368 95.4136 93.585 95.4729 93.7246C95.5321 93.86 95.6125 93.9785 95.7141 94.0801C95.8157 94.1816 95.9341 94.262 96.0696 94.3213C96.2092 94.3805 96.3573 94.4102 96.5139 94.4102H97.0344C97.191 94.4102 97.337 94.3805 97.4724 94.3213C97.612 94.262 97.7327 94.1816 97.8342 94.0801C97.9358 93.9785 98.0162 93.86 98.0754 93.7246C98.1347 93.585 98.1643 93.4368 98.1643 93.2803V88.5195H98.9451V95.0195H98.6848ZM110.308 95.0195L109.876 94.3594C109.699 94.6006 109.477 94.7931 109.21 94.937C108.943 95.0767 108.651 95.1465 108.334 95.1465H108.137C107.875 95.1465 107.627 95.0978 107.395 95.0005C107.162 94.8989 106.959 94.7614 106.785 94.5879C106.612 94.4144 106.474 94.2113 106.373 93.9785C106.275 93.7458 106.227 93.4982 106.227 93.2358V90.3032C106.227 90.0409 106.275 89.7933 106.373 89.5605C106.474 89.3278 106.612 89.1247 106.785 88.9512C106.959 88.7777 107.162 88.6423 107.395 88.5449C107.627 88.4434 107.875 88.3926 108.137 88.3926H108.334C108.626 88.3926 108.897 88.4518 109.146 88.5703C109.396 88.6888 109.61 88.8538 109.788 89.0654V85.917H110.568V95.0195H110.308ZM109.788 90.2588C109.788 90.1022 109.758 89.9562 109.699 89.8208C109.64 89.6812 109.559 89.5605 109.458 89.459C109.356 89.3574 109.235 89.277 109.096 89.2178C108.96 89.1585 108.814 89.1289 108.658 89.1289H108.137C107.981 89.1289 107.833 89.1585 107.693 89.2178C107.557 89.277 107.439 89.3574 107.337 89.459C107.236 89.5605 107.155 89.6812 107.096 89.8208C107.037 89.9562 107.007 90.1022 107.007 90.2588V93.2803C107.007 93.4368 107.037 93.585 107.096 93.7246C107.155 93.86 107.236 93.9785 107.337 94.0801C107.439 94.1816 107.557 94.262 107.693 94.3213C107.833 94.3805 107.981 94.4102 108.137 94.4102H108.658C108.814 94.4102 108.96 94.3805 109.096 94.3213C109.235 94.262 109.356 94.1816 109.458 94.0801C109.559 93.9785 109.64 93.86 109.699 93.7246C109.758 93.585 109.788 93.4368 109.788 93.2803V90.2588ZM118.047 86.958V85.917H118.954V86.958H118.047ZM118.11 95.0195V88.5195H118.891V95.0195H118.11ZM130.781 93.2358C130.781 93.4982 130.73 93.7458 130.628 93.9785C130.531 94.2113 130.396 94.4144 130.222 94.5879C130.049 94.7614 129.846 94.8989 129.613 95.0005C129.38 95.0978 129.133 95.1465 128.87 95.1465H128.35C128.087 95.1465 127.84 95.0978 127.607 95.0005C127.374 94.8989 127.171 94.7614 126.998 94.5879C126.824 94.4144 126.687 94.2113 126.585 93.9785C126.488 93.7458 126.439 93.4982 126.439 93.2358V90.3032C126.439 90.0409 126.488 89.7933 126.585 89.5605C126.687 89.3278 126.824 89.1247 126.998 88.9512C127.171 88.7777 127.374 88.6423 127.607 88.5449C127.84 88.4434 128.087 88.3926 128.35 88.3926H128.87C129.133 88.3926 129.38 88.4434 129.613 88.5449C129.846 88.6423 130.049 88.7777 130.222 88.9512C130.396 89.1247 130.531 89.3278 130.628 89.5605C130.73 89.7933 130.781 90.0409 130.781 90.3032V93.2358ZM130 90.2588C130 90.1022 129.97 89.9562 129.911 89.8208C129.852 89.6812 129.772 89.5605 129.67 89.459C129.568 89.3574 129.448 89.277 129.308 89.2178C129.173 89.1585 129.027 89.1289 128.87 89.1289H128.35C128.193 89.1289 128.045 89.1585 127.905 89.2178C127.77 89.277 127.651 89.3574 127.55 89.459C127.448 89.5605 127.368 89.6812 127.309 89.8208C127.249 89.9562 127.22 90.1022 127.22 90.2588V93.2803C127.22 93.4368 127.249 93.585 127.309 93.7246C127.368 93.86 127.448 93.9785 127.55 94.0801C127.651 94.1816 127.77 94.262 127.905 94.3213C128.045 94.3805 128.193 94.4102 128.35 94.4102H128.87C129.027 94.4102 129.173 94.3805 129.308 94.3213C129.448 94.262 129.568 94.1816 129.67 94.0801C129.772 93.9785 129.852 93.86 129.911 93.7246C129.97 93.585 130 93.4368 130 93.2803V90.2588Z" fill="white"/>
</g>
<defs>
<clipPath id="clip0_202_8">
<rect width="141" height="95" fill="white"/>
</clipPath>
</defs>
</svg>
