<svg width="128" height="50" viewBox="0 0 128 26" fill="none" xmlns="http://www.w3.org/2000/svg">
<path fillRule="evenodd" clipRule="evenodd" d="M10.7355 2.82792C10.7343 4.38319 10.6288 6.27005 10.5012 7.02068L10.2689 8.38534L9.28466 8.23828C7.53417 7.97676 5.47255 7.45052 3.75636 6.82719C2.83393 6.49223 2.01806 6.28153 1.94302 6.35903C1.82271 6.48346 1.19035 8.30193 0.202279 11.3647C-0.0252811 12.0699 -0.0573156 12.3618 0.0884134 12.4013C3.56171 13.3434 7.86498 15.0216 7.86498 15.434C7.86498 16.0043 4.43591 21.1059 3.60105 21.7779C3.45637 21.8942 3.33815 22.087 3.33815 22.2064C3.33815 22.4255 8.2609 26 8.56246 26C8.65178 26 9.11438 25.4403 9.5904 24.7562C10.6845 23.1839 12.3086 21.2339 13.3102 20.29L14.0841 19.5604L15.4579 21.0218C16.8197 22.4708 18.7025 24.8788 19.0617 25.6314C19.1793 25.8776 19.3577 25.9949 19.5431 25.9478C19.9211 25.8519 24.7535 22.4476 24.7535 22.2773C24.7535 22.2067 24.4703 21.8199 24.1239 21.4181C22.7326 19.8034 20.2267 15.9583 20.2267 15.4384C20.2267 15.3324 20.9905 14.9017 21.9243 14.4813C23.9909 13.5507 24.7575 13.2725 26.6687 12.7591C27.4827 12.5404 28.1368 12.2963 28.1224 12.2165C28.0552 11.8444 26.2838 6.63101 26.157 6.4323C26.0419 6.25182 25.7404 6.30888 24.6435 6.71897C23.1098 7.29249 20.9393 7.8596 19.0635 8.17717C17.8503 8.38247 17.8106 8.37825 17.723 8.03535C17.4629 7.01612 17.231 3.60269 17.3076 1.91961L17.395 0H14.0664H10.7378L10.7355 2.82792ZM37.5059 12.789L37.5505 25.5779H41.3809H45.2113L45.2984 20.8506C45.3462 18.2506 45.4441 16.1425 45.516 16.1656C45.5879 16.1887 47.9187 16.2078 50.6957 16.2078H55.7449V13.3377V10.4675H50.5216H45.2984V8.35714V6.24675H51.5663H57.8342V3.12338V0H47.6478H37.4612L37.5059 12.789ZM96.8345 4.47403V7.42857H95.6158H94.397V9.45455V11.4805H95.6029H96.8086L96.8791 16.8409C96.9575 22.7892 96.9952 23.0217 98.0801 24.2166C98.9273 25.1499 100.106 25.6343 102.082 25.8609C103.752 26.0525 106.608 25.8248 107.056 25.4645C107.22 25.3323 107.281 24.6495 107.281 22.9404V20.5974H106.262C105.702 20.5974 104.989 20.5111 104.677 20.4058C103.724 20.0838 103.625 19.5989 103.625 15.2846V11.4805H105.453H107.281V9.45455V7.42857L105.714 7.40747C104.852 7.39582 104.049 7.37691 103.929 7.36526C103.767 7.34939 103.7 6.61058 103.664 4.43182L103.617 1.51948H100.225H96.8345V4.47403ZM66.2785 6.86282C60.8304 7.70917 57.5013 11.3824 57.4889 16.5606C57.479 20.8176 59.9876 24.257 64.092 25.6139C65.0614 25.9343 65.6104 25.9919 67.7277 25.9956C69.9382 25.9995 70.37 25.9517 71.5282 25.5747C73.1596 25.0437 74.3775 24.2904 75.532 23.0986C77.134 21.4451 78.0331 19.0595 78.0282 16.4762C78.0195 11.8732 75.2268 8.27712 70.8053 7.17566C69.7042 6.90131 67.1615 6.72556 66.2785 6.86282ZM116.074 6.92343C112.424 7.57106 110.196 9.40863 109.566 12.2907C109.458 12.7829 109.37 13.2197 109.37 13.2615C109.37 13.3034 110.853 13.3377 112.665 13.3377H115.96L116.159 12.7523C116.883 10.6232 120.513 10.6911 120.513 12.8339C120.513 13.9235 119.579 14.3645 116.248 14.847C111.737 15.5004 110.242 16.1838 109.24 18.0526C108.727 19.0079 108.674 19.2469 108.674 20.5852C108.674 21.8955 108.734 22.18 109.206 23.0961C109.816 24.2784 110.448 24.857 111.808 25.4783C112.679 25.8759 112.963 25.9156 114.942 25.9156C116.935 25.9156 117.202 25.8778 118.106 25.4665C118.65 25.2193 119.444 24.7049 119.871 24.3232L120.647 23.6293L120.765 24.2388C120.83 24.5741 120.969 25.0314 121.074 25.2553L121.266 25.6623H124.633C126.9 25.6623 128 25.6036 128 25.4824C128 25.3834 127.902 25.1366 127.782 24.9337C127.624 24.6651 127.54 22.8469 127.472 18.2338C127.382 12.0718 127.369 11.8756 126.966 10.8938C126.224 9.08312 124.574 7.73922 122.37 7.15C121.27 6.85607 117.266 6.71205 116.074 6.92343ZM90.3925 7.19119C89.1781 7.50404 87.8455 8.38483 87.0749 9.38363L86.4751 10.1613L86.4246 8.79492L86.3739 7.42857H83.073H79.7719V16.5455V25.6623H83.2398H86.7075L86.7679 20.9773C86.8257 16.4887 86.8454 16.2552 87.2373 15.4097C87.7314 14.3432 88.894 13.26 89.8084 13.0137C90.1775 12.9144 91.1259 12.8327 91.916 12.8322L93.3524 12.8312V9.9791C93.3524 7.53409 93.313 7.11235 93.0769 7.02456C92.6195 6.85438 91.4072 6.92951 90.3925 7.19119ZM68.6808 11.5398C69.3981 11.8303 70.2654 12.7852 70.5692 13.6186C70.7233 14.0412 70.8053 15.0582 70.8053 16.5455C70.8053 18.7403 70.786 18.8622 70.283 19.8377C69.6327 21.0988 68.9042 21.6104 67.7584 21.6104C66.8163 21.6104 65.9776 21.1495 65.3952 20.3114C64.8313 19.5 64.5764 17.9964 64.6498 15.9147C64.7082 14.2657 64.7712 13.9591 65.2366 13.0691C65.6548 12.2688 65.9114 11.9963 66.5339 11.6916C67.4284 11.2536 67.8933 11.2207 68.6808 11.5398ZM120.526 19.9415C120.135 21.2214 119.134 21.9653 117.745 22.0078C116.71 22.0396 115.861 21.6852 115.543 21.0885C114.845 19.7801 115.638 18.8269 117.902 18.2525C118.716 18.0459 119.656 17.7752 119.991 17.6511L120.6 17.4256L120.656 18.3783C120.687 18.9023 120.628 19.6059 120.526 19.9415Z" fill="#000000"/>
</svg>
